{"title":"Reign.of.Assassins.2010.BRRIP.720P.H264-ZEKTORM","uid":6354445,"size":2515754498,"categoryP":"video","categoryS":"hd___movies","magnet":"?xt=urn:btih:a2618da2b05e0a21dfb298bb8fa48bc978b35e8a&amp;dn=Reign.of.Assassins.2010.BRRIP.720P.H264-ZEKTORM&amp;tr=udp%3A%2F%2Ftracker.openbittorrent.com%3A80&amp;tr=udp%3A%2F%2Fopen.demonii.com%3A1337&amp;tr=udp%3A%2F%2Ftracker.coppersurfer.tk%3A6969&amp;tr=udp%3A%2F%2Fexodus.desync.com%3A6969","seeders":1,"leechers":1,"uploader":"blowley","files":4,"time":1304103448,"description":"Title                            : Jianyu\nAlso Known As                    : Reign of Assassins\nYear                             : 2010\nGenre                            : Action\niMDB URL                         : http://www.imdb.com/title/tt1460743/\n\nComplete name                    : Reign.of.Assassins.2010.BRRIP.720P.H264-ZEKTORM.mp4\nFormat                           : MPEG-4\nFormat profile                   : Base Media\nCodec ID                         : isom\nFile size                        : 2.34 GiB\nDuration                         : 1h 59mn\nOverall bit rate                 : 2800 Kbps\nSubtitles                        : English (Format: srt)\n\nVideo\nID                               : 1\nFormat                           : AVC\nFormat/Info                      : Advanced Video Codec\nFormat profile                   : &lt;a class=&quot;__cf_email__&quot; href=&quot;/cdn-cgi/l/email-protection&quot; data-cfemail=&quot;0f476668674f433b213f&quot;&gt;[email&amp;#160;protected]&lt;/a&gt;&lt;script cf-hash='f9e31' type=&quot;text/javascript&quot;&gt;\n/* &lt;![CDATA[ */!function(){try{var t=&quot;currentScript&quot;in document?document.currentScript:function(){for(var t=document.getElementsByTagName(&quot;script&quot;),e=t.length;e--;)if(t[e].getAttribute(&quot;cf-hash&quot;))return t[e]}();if(t&amp;&amp;t.previousSibling){var e,r,n,i,c=t.previousSibling,a=c.getAttribute(&quot;data-cfemail&quot;);if(a){for(e=&quot;&quot;,r=parseInt(a.substr(0,2),16),n=2;a.length-n;n+=2)i=parseInt(a.substr(n,2),16)^r,e+=String.fromCharCode(i);e=document.createTextNode(e),c.parentNode.replaceChild(e,c)}}}catch(u){}}();/* ]]&gt; */&lt;/script&gt;\nFormat settings, CABAC           : Yes\nFormat settings, ReFrames        : 8 frames\nCodec ID                         : avc1\nCodec ID/Info                    : Advanced Video Coding\nDuration                         : 1h 59mn\nBit rate mode                    : Variable\nBit rate                         : 2574 Kbps\nWidth                            : 1280 pixels\nHeight                           : 528 pixels\nDisplay aspect ratio             : 2.424\nFrame rate mode                  : Constant\nFrame rate                       : 24.000 fps\nResolution                       : 24 bits\nColorimetry                      : 4:2:0\nScan type                        : Progressive\nBits/(Pixel*Frame)               : 0.159\nStream size                      : 2.15 GiB (92%)\nTitle                            : Video\nWriting library                  : x264\n\nAudio\nID                               : 2\nFormat                           : AAC\nFormat/Info                      : Advanced Audio Codec\nFormat version                   : Version 4\nFormat profile                   : LC\nFormat settings, SBR             : Yes\nFormat settings, PS              : No\nCodec ID                         : 40\nDuration                         : 1h 59mn\nBit rate mode                    : Variable\nBit rate                         : 224 Kbps\nMaximum bit rate                 : 282 Kbps\nChannel(s)                       : 6 channels\nChannel positions                : Front: L C R, Rear: L R, LFE\nSampling rate                    : 48.0 KHz\nResolution                       : 16 bits\nStream size                      : 192 MiB (8%)\nTitle                            : Chinese\nLanguage                         : Chinese\n\n\n\nScreenshots:\n\n[img]http://img191.imageshack.us/img191/1160/snaproa1.png[/img]\n\n[img]http://img97.imageshack.us/img97/3905/snaproa2.png[/img]\n\n[img]http://img69.imageshack.us/img69/7162/snaproa3.png[/img]\n\n[img]http://img696.imageshack.us/img696/1098/snaproa4.png[/img]\n","torrent":{"xt":"urn:btih:a2618da2b05e0a21dfb298bb8fa48bc978b35e8a","amp;dn":"Reign.of.Assassins.2010.BRRIP.720P.H264-ZEKTORM","amp;tr":["udp%3A%2F%2Ftracker.openbittorrent.com%3A80","udp%3A%2F%2Fopen.demonii.com%3A1337","udp%3A%2F%2Ftracker.coppersurfer.tk%3A6969","udp%3A%2F%2Fexodus.desync.com%3A6969"],"infoHash":"a2618da2b05e0a21dfb298bb8fa48bc978b35e8a","infoHashBuffer":{"type":"Buffer","data":[162,97,141,162,176,94,10,33,223,178,152,187,143,164,139,201,120,179,94,138]},"announce":[],"urlList":[]}}